<svg width="34" height="28" viewBox="0 0 34 28" fill="none" xmlns="http://www.w3.org/2000/svg">
<path id="Vector" d="M30.4373 0.562988H3.90188C2.06099 0.562988 0.601546 2.03902 0.601546 3.87991L0.584961 23.7814C0.584961 25.6223 2.06099 27.0984 3.90188 27.0984H30.4373C32.2782 27.0984 33.7542 25.6223 33.7542 23.7814V3.87991C33.7542 2.03902 32.2782 0.562988 30.4373 0.562988ZM17.1696 10.5138H10.5357V12.1722H15.5111C16.4233 12.1722 17.1696 12.9185 17.1696 13.8307V18.8061C17.1696 19.7182 16.4233 20.4645 15.5111 20.4645H13.8527V22.123H10.5357V20.4645H7.21881V17.1476H13.8527V15.4891H8.87727C7.96512 15.4891 7.21881 14.7428 7.21881 13.8307V8.8553C7.21881 7.94314 7.96512 7.19683 8.87727 7.19683H10.5357V5.53837H13.8527V7.19683H17.1696V10.5138ZM23.8034 20.8791L20.4865 17.5622H27.1203L23.8034 20.8791ZM20.4865 10.5138L23.8034 7.19683L27.1203 10.5138H20.4865Z" fill="white"/>
</svg>
